# xmcd
#
# Track frame offsets: 
#        150
#        19600
#        37112
#        56504
#        77396
#        95492
#        111498
#        134816
#        149195
#        168127
#        182669
#
# Disc length: 2653 seconds
#
# Revision: 0
# Processed by: cddbd v1.4PL0 Copyright (c) Steve Scherf et al.
# Submitted via: ExactAudioCopy v0.90b4
#
DISCID=9a0a5b0b
DTITLE=Wailin' Walker - Crazy At Night
DYEAR=2002
DGENRE=Blues
TTITLE0=Crazy At Night
TTITLE1=Blacktop Boogie
TTITLE2=Wait A Minute
TTITLE3=What's Eatin' Ya Now
TTITLE4=It Takes Time
TTITLE5=Loved Starved Woman
TTITLE6=Too Many Bills
TTITLE7=Rock Me, Roll Me
TTITLE8=Not The Only One
TTITLE9=Ride Away
TTITLE10=Eastbound Baby
EXTD=
EXTT0=
EXTT1=
EXTT2=
EXTT3=
EXTT4=
EXTT5=
EXTT6=
EXTT7=
EXTT8=
EXTT9=
EXTT10=
PLAYORDER=
